<svg xmlns="http://www.w3.org/2000/svg" viewBox="0 0 195.78 61.43"><defs><style>.cls-1{fill:#00c1a4;}.cls-2{fill:#fe0202;}.cls-3{fill:#fefefe;}</style></defs><g id="Layer_2" data-name="Layer 2"><g id="Layer_1-2" data-name="Layer 1"><g id="_9Ctjde" data-name="9Ctjde"><path class="cls-1" d="M13.23,52.36c.07-.82.15-1.64.23-2.47.12-1.28.25-2.57.38-3.86l.45-4.72.36-3.79c.16-1.57.31-3.15.46-4.72.05-.55.08-1.09.15-1.63,0-.24-.12-.31-.27-.39l-6-3.3L.73,23A1.5,1.5,0,0,1,0,21.55a1.56,1.56,0,0,1,1.22-1.38c1-.16,1.94-.27,2.91-.4l5.15-.68c1.57-.21,3.13-.43,4.7-.63,1.9-.26,3.81-.51,5.71-.75.24,0,.31-.2.4-.36l4.34-7.5L29.61.91A2,2,0,0,1,30.75,0c.56-.19,1.72.51,1.71,1.21A46.13,46.13,0,0,0,32.79,7a28.28,28.28,0,0,0,1.78,7.39A4.89,4.89,0,0,0,39,17.48a15.09,15.09,0,0,0,3.29,0c0,.19-.22.21-.33.27a70.66,70.66,0,0,0-14.2,11.59,66.16,66.16,0,0,0-6.42,8.47A105.19,105.19,0,0,0,14,51.14,3.73,3.73,0,0,1,13.23,52.36Z"/><path class="cls-2" d="M49.05,28.23a29.6,29.6,0,0,1-.56,4.83,4.21,4.21,0,0,0,0,1.46,1.28,1.28,0,0,0,1.34,1.09A3.32,3.32,0,0,0,51.71,35a13.87,13.87,0,0,0,2.58-2.38,37,37,0,0,0,6.29-9.68c.1-.21.23-.41.32-.62a2.8,2.8,0,0,1,2.3-1.74,21.07,21.07,0,0,1,3.17-.36c.51,0,.5,0,.29.45a64.19,64.19,0,0,1-8.13,12.55c-1.66,2.08-3.21,4.26-5.06,6.18a22,22,0,0,1-5.76,4.49,6.25,6.25,0,0,1-2,.63,2.25,2.25,0,0,1-2.52-1.63,16,16,0,0,1-.4-3.45,22.31,22.31,0,0,0-.4-3.37,4.6,4.6,0,0,0-.26-.82,1.07,1.07,0,0,0-1.43-.74,8.13,8.13,0,0,0-2.11.88,32.93,32.93,0,0,0-5.75,4.19C28.74,43.21,24.71,46.92,21,50.91c-1.68,1.78-3.26,3.64-4.77,5.57a14.43,14.43,0,0,0-.82,1.22,5.74,5.74,0,0,1-.36.5c-.13.14-.28.29-.49.19a.48.48,0,0,1-.25-.52A8.57,8.57,0,0,1,15,55.12a49.38,49.38,0,0,1,6.3-9.6c2.43-3.14,5.19-6,7.74-9A95.71,95.71,0,0,1,39.81,26.15,31,31,0,0,1,44,22.85a6.51,6.51,0,0,1,1.63-.75A2,2,0,0,1,48,23,5.88,5.88,0,0,1,48.77,25,14.14,14.14,0,0,1,49.05,28.23Z"/><path class="cls-1" d="M141.54,45.23a23.91,23.91,0,0,1-6.42-.7,9.87,9.87,0,0,1-5.4-3.89.36.36,0,0,1,0-.47c.62-1,1.25-2,1.86-3,.16-.26.25-.19.4,0,.32.42.67.82,1,1.22a7.15,7.15,0,0,0,4.32,2.19,34.88,34.88,0,0,0,6.54.22,2.6,2.6,0,0,0,2.62-3.18,4.47,4.47,0,0,0-.95-1.88c-1.12-1.39-2.4-2.65-3.58-4a12.62,12.62,0,0,1-2.48-3.68,6.21,6.21,0,0,1,4.76-8.4,8.06,8.06,0,0,1,7.42,2.55,10,10,0,0,1,1,1.11c.12.16.15.26,0,.41-1,.87-2,1.75-3,2.63-.17.15-.23.09-.35-.05a7.64,7.64,0,0,0-2.19-2A2.63,2.63,0,0,0,144.8,24a1.74,1.74,0,0,0-1.08,2.22,6.51,6.51,0,0,0,1.6,2.34c1.16,1.31,2.39,2.55,3.53,3.88a9,9,0,0,1,2.42,5.63,6.75,6.75,0,0,1-5.62,6.84c-.33.06-.65.12-1,.16C143.6,45.21,142.52,45.18,141.54,45.23Z"/><path class="cls-1" d="M178.88,28.92c.09-.66.19-1.33.27-2,0-.3.11-.44.47-.44,1.21,0,2.43,0,3.64,0,.31,0,.42,0,.36.4-.31,2.07-.57,4.16-.86,6.23-.31,2.23-.64,4.45-.95,6.67-.21,1.47-.41,2.94-.6,4.42,0,.26-.12.34-.38.34-1.24,0-2.49,0-3.73,0-.26,0-.37,0-.32-.33.09-.5.15-1,.23-1.55a15,15,0,0,1-1.92,1.44,7.25,7.25,0,0,1-4.37.89c-4-.32-6.25-3.66-6.8-6.59A10.13,10.13,0,0,1,168,27.87a8.65,8.65,0,0,1,6.27-1.77,6,6,0,0,1,4.37,2.57l.2.25Zm-.6,5.66c0-.13,0-.27,0-.41a4.22,4.22,0,0,0-2.38-3.57,5.45,5.45,0,0,0-7,2.42,6.88,6.88,0,0,0-.73,4.24,4.09,4.09,0,0,0,1.57,2.85,4.93,4.93,0,0,0,4.62.68C176.88,40.09,178.43,36.94,178.28,34.58Z"/><path class="cls-2" d="M111,29c.1-.73.21-1.44.3-2.16,0-.21.09-.27.3-.27,1.28,0,2.57,0,3.85,0,.28,0,.3.09.27.33q-1,7.09-2,14.2c-.14,1.06-.3,2.11-.43,3.17,0,.24-.11.32-.35.31h-3.77c-.24,0-.3-.06-.26-.3.09-.51.14-1,.22-1.6-.4.33-.76.61-1.11.91a7.39,7.39,0,0,1-10.88-2.27A10.3,10.3,0,0,1,98,29.94a9.41,9.41,0,0,1,7.78-3.86,6,6,0,0,1,5,2.66l.15.19Zm-10.79,7.33a4.7,4.7,0,0,0,1.31,3.54,5,5,0,0,0,6,.5,6.28,6.28,0,0,0,2.79-4.7,5,5,0,0,0-1-3.94c-1.53-1.93-4.46-1.91-6.24-.83A6,6,0,0,0,100.22,36.28Z"/><path class="cls-2" d="M83.85,20.19a37.6,37.6,0,0,1,5.81.23,6.22,6.22,0,0,1,5.19,3.82,6.83,6.83,0,0,1-1.11,7,6.51,6.51,0,0,1-4.83,2.57c-2.29.24-4.58.39-6.87.43-.38,0-.52.1-.57.51-.41,3.15-.86,6.31-1.28,9.46,0,.3-.17.34-.42.33-1.27,0-2.54,0-3.81,0-.34,0-.41-.09-.36-.41q.81-5.76,1.58-11.53c.54-4,1.09-7.9,1.61-11.85.06-.42.15-.59.63-.58C80.9,20.21,82.37,20.19,83.85,20.19Zm1.52,2.17c-.6,0-1.2,0-1.8,0-.28,0-.38.09-.41.36-.4,2.82-.81,5.65-1.22,8.47,0,.25,0,.31.26.3.78,0,1.56,0,2.33-.08A15.08,15.08,0,0,0,89,30.65,4.88,4.88,0,0,0,92.28,27a3.41,3.41,0,0,0-1.41-3.63,5.9,5.9,0,0,0-2.23-.79A29.72,29.72,0,0,0,85.37,22.36Z"/><path class="cls-2" d="M125.88,37.21l2.63-4.56c1.12-1.94,2.25-3.88,3.35-5.82a.52.52,0,0,1,.55-.31c1.43,0,2.87,0,4.3,0,.09.14,0,.22-.08.3Q129.82,38.66,123,50.5a1.06,1.06,0,0,1-1.1.64c-1.28,0-2.57,0-3.93,0l.29-.53c1.54-2.72,3.07-5.45,4.62-8.16a.85.85,0,0,0,.07-.76q-2.4-7.34-4.79-14.68c-.16-.48-.16-.48.36-.48,1.12,0,2.25,0,3.37,0a.52.52,0,0,1,.6.43c1.07,3.33,2.17,6.66,3.27,10C125.8,37,125.82,37.06,125.88,37.21Z"/><path class="cls-1" d="M155.58,30.34h-1.91c-.2,0-.27,0-.23-.28.17-1.07.32-2.15.44-3.24,0-.31.15-.35.41-.34.5,0,1,0,1.51,0,.22,0,.31-.05.34-.28.14-1.1.3-2.21.46-3.31.13-.93.26-1.86.38-2.79,0-.22.09-.3.32-.3h3.86c.24,0,.28.07.25.31-.28,1.93-.53,3.86-.79,5.79a1,1,0,0,1-.05.24c-.1.29,0,.34.3.34.71,0,1.42,0,2.13,0,.26,0,.34,0,.29.35-.18,1.06-.32,2.12-.44,3.19,0,.25-.11.32-.35.32-.73,0-1.45,0-2.18,0-.26,0-.33.08-.36.34q-.51,3.78-1,7.57-.39,2.85-.76,5.71c-.08.58-.06.58-.65.58H154c-.3,0-.36-.06-.31-.37q.4-2.82.79-5.66l.69-5.1C155.3,32.4,155.44,31.39,155.58,30.34Z"/><path class="cls-1" d="M190.4,28.8a6.36,6.36,0,0,1,2.44-2.36,3.42,3.42,0,0,1,2.73-.19c.2.07.26.15.16.38-.49,1.16-.95,2.34-1.42,3.51-.06.16-.12.29-.35.21a2,2,0,0,0-2.1.54A6,6,0,0,0,190.23,34,37.88,37.88,0,0,0,189.4,39c-.21,1.74-.45,3.49-.67,5.23,0,.23-.11.34-.38.34q-1.89,0-3.78,0c-.29,0-.37-.08-.32-.37.36-2.59.7-5.18,1.06-7.78q.65-4.77,1.31-9.55c0-.25.11-.37.4-.36,1.09,0,2.19,0,3.28,0,.31,0,.34.09.3.38a9.06,9.06,0,0,0-.2,1.94h0Z"/><path class="cls-2" d="M36.64,61.42a10,10,0,0,1,.24-1.73,2.9,2.9,0,0,0-1.22-3c-.42-.32-.87-.6-1.31-.9a4.1,4.1,0,0,1-.8-.7,1.83,1.83,0,0,1-.17-2.3,3.72,3.72,0,0,1,3.08-1.73,33,33,0,0,1,5.35.05,21,21,0,0,0,4.95-.1,6.05,6.05,0,0,0,1.17-.35.53.53,0,0,1,.67.14.57.57,0,0,1,0,.69,3.79,3.79,0,0,1-1.14,1,6.19,6.19,0,0,1-3,1,32.1,32.1,0,0,0-4.67.8,3.53,3.53,0,0,0-1.27.56.61.61,0,0,0-.26.81,3,3,0,0,1,.11,2,7.79,7.79,0,0,1-1.11,2.62l-.65,1.09Z"/><polygon class="cls-2" points="36.63 61.43 36.62 61.43 36.64 61.42 36.63 61.43"/><path class="cls-3" d="M190.4,28.8h0Z"/></g></g></g></svg>