<?xml version="1.0" standalone="no"?>
<!DOCTYPE svg PUBLIC "-//W3C//DTD SVG 20010904//EN"
 "http://www.w3.org/TR/2001/REC-SVG-20010904/DTD/svg10.dtd">
<svg version="1.0" xmlns="http://www.w3.org/2000/svg"
 width="250.000000pt" height="258.000000pt" viewBox="0 0 250.000000 258.000000"
 preserveAspectRatio="xMidYMid meet">

<g transform="translate(0.000000,258.000000) scale(0.100000,-0.100000)"
fill="#000000" stroke="none">
<path d="M910 2549 c-148 -39 -271 -141 -340 -283 -45 -93 -60 -170 -60 -308
0 -81 -4 -103 -21 -133 -17 -28 -20 -47 -17 -90 7 -83 59 -138 161 -169 9 -3
17 -14 17 -25 0 -50 44 -134 101 -196 l60 -64 -3 -57 -3 -58 -261 -102 c-144
-55 -282 -113 -307 -127 -62 -37 -132 -117 -159 -185 -22 -55 -23 -67 -23
-375 l0 -319 28 -24 28 -24 944 0 944 0 27 23 c25 22 28 32 32 108 l4 85 76
34 c162 73 279 229 304 405 35 245 -125 494 -364 566 -73 22 -98 17 -98 -21 0
-23 15 -33 80 -53 114 -34 210 -119 268 -236 36 -73 37 -78 37 -185 0 -105 -2
-115 -33 -180 -42 -89 -87 -144 -155 -189 -154 -103 -349 -103 -503 -1 -151
100 -225 299 -179 477 21 83 50 133 111 197 60 64 121 100 207 125 48 14 57
20 57 39 0 37 -19 46 -70 35 -69 -16 -160 -63 -217 -114 l-53 -47 -115 44
-115 43 0 64 c0 62 1 65 44 111 49 52 92 130 104 186 6 32 13 38 56 55 60 23
84 43 107 94 24 51 24 95 0 153 -14 34 -21 82 -25 172 -7 172 -40 273 -120
369 -140 168 -347 235 -556 180z m279 -78 c200 -62 321 -239 321 -469 0 -73
-2 -83 -16 -78 -9 3 -19 6 -24 6 -4 0 -10 10 -14 23 -7 30 -142 176 -169 182
-15 4 -59 -13 -129 -49 -131 -66 -247 -96 -377 -96 -91 0 -92 0 -127 -35 -56
-56 -64 -49 -64 53 0 48 5 107 11 131 34 148 146 272 294 328 79 29 207 31
294 4z m135 -468 l56 -58 -2 -210 c-3 -197 -5 -213 -27 -257 -31 -63 -88 -121
-153 -155 -46 -24 -64 -28 -143 -28 -77 0 -98 4 -146 26 -69 33 -127 89 -160
155 -22 46 -24 61 -27 240 l-3 191 93 6 c125 7 254 42 363 98 50 26 91 47 92
48 1 0 27 -25 57 -56z m-684 -253 c0 -90 -2 -100 -18 -100 -24 0 -69 48 -77
81 -8 32 15 81 47 103 44 31 48 23 48 -84z m881 72 c26 -24 32 -36 32 -72 0
-36 -6 -48 -32 -72 -55 -49 -61 -41 -61 72 0 113 6 121 61 72z m-381 -772
c-45 -55 -84 -100 -88 -99 -4 0 -44 47 -89 104 -74 93 -83 109 -83 146 0 40 1
41 28 35 123 -28 205 -27 282 2 24 9 25 8 28 -39 3 -48 1 -51 -78 -149z m-221
-59 l81 -100 -79 -55 c-44 -31 -82 -56 -85 -56 -7 0 -139 261 -134 265 7 5
114 44 124 44 6 1 48 -44 93 -98z m425 78 c31 -12 56 -25 56 -29 0 -15 -121
-260 -129 -260 -6 0 -45 26 -129 88 l-33 24 37 46 c80 100 126 152 134 152 4
0 33 -10 64 -21z m-640 -208 c41 -81 82 -151 91 -155 27 -10 70 -7 84 7 10 10
17 6 35 -16 l23 -29 -48 -281 c-27 -155 -49 -285 -49 -289 0 -5 -81 -8 -180
-8 l-180 0 0 213 c0 116 -3 222 -6 234 -7 27 -40 39 -59 23 -12 -10 -15 -53
-15 -241 l0 -229 -135 0 -135 0 0 290 c0 260 2 295 19 340 22 57 58 103 110
141 33 25 329 147 358 148 7 1 46 -66 87 -148z m720 14 c-23 -73 -20 -214 5
-296 26 -83 83 -171 149 -231 l52 -46 0 -106 0 -106 -179 0 c-202 0 -184 -8
-197 85 -9 70 -20 87 -52 83 -24 -3 -27 -7 -27 -38 1 -19 4 -56 8 -82 l8 -48
-135 0 c-121 0 -136 2 -136 17 0 16 75 463 85 511 5 19 12 22 49 22 50 0 44
13 71 -147 20 -121 22 -125 54 -121 35 4 38 37 12 179 -19 106 -19 114 -3 141
17 29 36 36 47 18 3 -5 21 -10 40 -10 41 0 55 16 114 138 25 50 46 90 48 89 1
-2 -5 -25 -13 -52z m-312 -79 l38 -28 -21 -29 c-18 -26 -26 -29 -78 -29 -52 0
-58 2 -74 30 l-18 29 48 35 c26 19 52 31 58 27 5 -4 27 -20 47 -35z m789 -583
l79 -6 0 -58 0 -59 -135 0 -135 0 0 83 0 84 56 -19 c30 -10 91 -21 135 -25z"/>
<path d="M1813 1106 c-104 -34 -194 -114 -241 -214 -24 -50 -27 -69 -27 -162
0 -95 3 -111 29 -163 117 -240 437 -297 624 -110 192 192 132 517 -116 631
-69 31 -201 40 -269 18z m257 -99 c240 -120 217 -472 -36 -567 -150 -56 -320
13 -391 158 -38 77 -39 193 -4 262 37 71 68 107 118 137 106 62 204 65 313 10z"/>
<path d="M1910 956 c0 -8 -13 -17 -29 -21 -34 -7 -76 -50 -85 -87 -11 -47 17
-95 68 -120 l46 -22 0 -58 c0 -32 -3 -58 -7 -58 -5 0 -23 9 -41 20 -18 11 -39
20 -47 20 -20 0 -34 -31 -25 -56 8 -20 74 -54 105 -54 8 0 15 -7 15 -15 0 -19
26 -20 37 -1 4 7 22 21 40 29 54 28 76 65 70 120 -5 53 -30 88 -78 107 -27 12
-29 16 -29 66 0 53 0 53 26 44 39 -15 62 -12 69 10 9 29 -11 49 -56 56 -23 4
-39 12 -39 20 0 8 -9 14 -20 14 -11 0 -20 -6 -20 -14z m0 -126 c0 -41 -7 -49
-28 -28 -13 13 -16 50 -5 61 19 19 33 5 33 -33z m62 -157 c23 -21 23 -45 0
-66 -24 -22 -32 -13 -32 40 0 47 4 51 32 26z"/>
</g>
</svg>
